<svg width="17" height="16" viewBox="0 0 17 16" fill="none" xmlns="http://www.w3.org/2000/svg">
<mask id="path-1-inside-1_683_836" fill="white">
<path fill-rule="evenodd" clip-rule="evenodd" d="M8.45128 13.9877C6.68756 14.5644 4.3411 13.4053 2.90892 11.1339C1.30237 8.58597 1.45464 5.60327 3.24903 4.47185C4.50743 3.6784 6.23926 4.00615 7.7157 5.15157C9.13517 3.7258 10.8847 3.09916 12.2109 3.71083C14.0631 4.56515 14.3882 7.51159 12.9369 10.2919C11.8448 12.3841 10.0581 13.786 8.45128 13.9877Z"/>
</mask>
<path fill-rule="evenodd" clip-rule="evenodd" d="M8.45128 13.9877C6.68756 14.5644 4.3411 13.4053 2.90892 11.1339C1.30237 8.58597 1.45464 5.60327 3.24903 4.47185C4.50743 3.6784 6.23926 4.00615 7.7157 5.15157C9.13517 3.7258 10.8847 3.09916 12.2109 3.71083C14.0631 4.56515 14.3882 7.51159 12.9369 10.2919C11.8448 12.3841 10.0581 13.786 8.45128 13.9877Z" fill="#FF0000"/>
<path d="M8.45128 13.9877L8.32435 12.9769L8.22747 12.9891L8.13466 13.0194L8.45128 13.9877ZM7.7157 5.15157L7.09123 5.95652L7.80252 6.50833L8.43768 5.87036L7.7157 5.15157ZM12.2109 3.71083L11.7842 4.63595L12.2109 3.71083ZM12.9369 10.2919L12.0338 9.82046L12.0338 9.82046L12.9369 10.2919ZM8.13466 13.0194C7.57642 13.2019 6.83294 13.1355 6.01768 12.7208C5.20957 12.3097 4.39771 11.585 3.77069 10.5905L2.04715 11.6773C2.85231 12.9543 3.92977 13.9448 5.09386 14.5369C6.25081 15.1254 7.56242 15.3502 8.7679 14.9561L8.13466 13.0194ZM3.77069 10.5905C3.06594 9.47282 2.77146 8.29556 2.82107 7.32363C2.87087 6.34825 3.25124 5.67485 3.7924 5.33363L2.70565 3.61008C1.45243 4.40027 0.859468 5.78393 0.786167 7.21974C0.712691 8.659 1.14535 10.2471 2.04715 11.6773L3.77069 10.5905ZM3.7924 5.33363C4.54345 4.86007 5.79442 4.95046 7.09123 5.95652L8.34017 4.34662C6.6841 3.06185 4.4714 2.49672 2.70565 3.61008L3.7924 5.33363ZM8.43768 5.87036C9.73777 4.56451 11.0375 4.29156 11.7842 4.63595L12.6376 2.78572C10.7319 1.90675 8.53258 2.8871 6.99373 4.43277L8.43768 5.87036ZM11.7842 4.63595C12.2849 4.86689 12.6939 5.4284 12.8001 6.39084C12.9057 7.34849 12.6821 8.57832 12.0338 9.82046L13.84 10.7633C14.6429 9.22516 14.9825 7.59163 14.8253 6.1674C14.6687 4.74797 13.9891 3.4091 12.6376 2.78572L11.7842 4.63595ZM12.0338 9.82046C11.0392 11.7258 9.49359 12.8301 8.32435 12.9769L8.57821 14.9986C10.6226 14.7419 12.6504 13.0423 13.84 10.7633L12.0338 9.82046Z" fill="black" mask="url(#path-1-inside-1_683_836)"/>
</svg>
