<svg width="31" height="31" viewBox="0 0 31 31" fill="none" xmlns="http://www.w3.org/2000/svg">
<mask id="path-1-inside-1_646_731" fill="white">
<path fill-rule="evenodd" clip-rule="evenodd" d="M16.3358 26.9956C13.0277 28.0288 8.53543 25.6732 5.71949 21.2072C2.5607 16.1975 2.70747 10.4292 6.04729 8.32331C8.3895 6.84648 11.6801 7.56311 14.5264 9.85091C17.1433 7.15735 20.4222 6.02677 22.9591 7.27396C26.5023 9.0159 27.2566 14.7366 24.6436 20.0515C22.6774 24.0509 19.3649 26.6809 16.3358 26.9956Z"/>
</mask>
<path fill-rule="evenodd" clip-rule="evenodd" d="M16.3358 26.9956C13.0277 28.0288 8.53543 25.6732 5.71949 21.2072C2.5607 16.1975 2.70747 10.4292 6.04729 8.32331C8.3895 6.84648 11.6801 7.56311 14.5264 9.85091C17.1433 7.15735 20.4222 6.02677 22.9591 7.27396C26.5023 9.0159 27.2566 14.7366 24.6436 20.0515C22.6774 24.0509 19.3649 26.6809 16.3358 26.9956Z" fill="#D6D6D6"/>
<path d="M16.3358 26.9956L16.2303 25.9797L16.1288 25.9903L16.0313 26.0207L16.3358 26.9956ZM14.5264 9.85091L13.8866 10.6469L14.6112 11.2293L15.259 10.5626L14.5264 9.85091ZM22.9591 7.27396L23.4097 6.35744L23.4097 6.35744L22.9591 7.27396ZM24.6436 20.0515L25.5602 20.5021L24.6436 20.0515ZM16.0313 26.0207C14.7173 26.4311 13.0564 26.1964 11.3277 25.2646C9.6095 24.3385 7.90744 22.7624 6.58339 20.6625L4.85559 21.752C6.34747 24.118 8.29953 25.9528 10.3585 27.0626C12.4069 28.1667 14.6463 28.5932 16.6403 27.9704L16.0313 26.0207ZM6.58339 20.6625C5.09653 18.3044 4.41385 15.8059 4.46737 13.7023C4.52111 11.5901 5.30081 10.0013 6.59201 9.18721L5.50258 7.45941C3.45395 8.75113 2.49035 11.0994 2.42545 13.6503C2.36033 16.2098 3.18365 19.1003 4.85559 21.752L6.58339 20.6625ZM6.59201 9.18721C8.39731 8.04891 11.1939 8.48261 13.8866 10.6469L15.1663 9.05489C12.1663 6.64362 8.3817 5.64404 5.50258 7.45941L6.59201 9.18721ZM15.259 10.5626C17.7402 8.00859 20.5532 7.22924 22.5085 8.19048L23.4097 6.35744C20.2911 4.82429 16.5464 6.30611 13.7939 9.13926L15.259 10.5626ZM22.5085 8.19048C23.8784 8.86392 24.8212 10.3616 25.0974 12.4564C25.3724 14.5426 24.957 17.0992 23.7271 19.6009L25.5602 20.5021C26.9432 17.6889 27.4571 14.7277 27.1225 12.1894C26.7889 9.65953 25.5831 7.42593 23.4097 6.35744L22.5085 8.19048ZM23.7271 19.6009C21.8568 23.4054 18.7944 25.7134 16.2303 25.9797L16.4413 28.0114C19.9353 27.6485 23.4981 24.6965 25.5602 20.5021L23.7271 19.6009Z" fill="black" mask="url(#path-1-inside-1_646_731)"/>
</svg>
