<svg width="17" height="17" viewBox="0 0 17 17" fill="none" xmlns="http://www.w3.org/2000/svg">
<mask id="path-1-inside-1_0_42" fill="white">
<path fill-rule="evenodd" clip-rule="evenodd" d="M9.18407 14.7498C7.40405 15.3774 4.91264 14.1841 3.2919 11.8091C1.47383 9.14492 1.43983 6.00263 3.21594 4.79058C4.46153 3.94058 6.26658 4.26564 7.86086 5.45458C9.23191 3.93695 10.9941 3.2569 12.3994 3.8856C14.3622 4.76369 14.8856 7.86227 13.5685 10.8065C12.5774 13.022 10.8264 14.5187 9.18407 14.7498Z"/>
</mask>
<path fill-rule="evenodd" clip-rule="evenodd" d="M9.18407 14.7498C7.40405 15.3774 4.91264 14.1841 3.2919 11.8091C1.47383 9.14492 1.43983 6.00263 3.21594 4.79058C4.46153 3.94058 6.26658 4.26564 7.86086 5.45458C9.23191 3.93695 10.9941 3.2569 12.3994 3.8856C14.3622 4.76369 14.8856 7.86227 13.5685 10.8065C12.5774 13.022 10.8264 14.5187 9.18407 14.7498Z" fill="#F50000"/>
<path d="M9.18407 14.7498L9.04339 13.7497L8.94344 13.7638L8.84825 13.7973L9.18407 14.7498ZM7.86086 5.45458L7.25711 6.26416L7.99401 6.81371L8.61025 6.13159L7.86086 5.45458ZM12.3994 3.8856L12.8118 2.96372L12.3994 3.8856ZM13.5685 10.8065L14.4904 11.2189L13.5685 10.8065ZM8.84825 13.7973C8.2904 13.994 7.51181 13.937 6.6249 13.4996C5.74864 13.0676 4.84876 12.2988 4.12609 11.2398L2.4577 12.3784C3.35577 13.6944 4.51197 14.7098 5.73161 15.3112C6.9406 15.9074 8.29772 16.1332 9.5199 15.7022L8.84825 13.7973ZM4.12609 11.2398C3.31377 10.0495 2.92727 8.78899 2.91596 7.74436C2.90457 6.69125 3.26284 5.98124 3.78521 5.62478L2.64668 3.95639C1.39292 4.81197 0.880147 6.27913 0.896241 7.76622C0.912426 9.26179 1.45196 10.9046 2.4577 12.3784L4.12609 11.2398ZM3.78521 5.62478C4.51234 5.12857 5.81905 5.19173 7.25711 6.26416L8.4646 4.64499C6.7141 3.33955 4.41071 2.75259 2.64668 3.95639L3.78521 5.62478ZM8.61025 6.13159C9.8523 4.75676 11.1667 4.44051 11.987 4.80747L12.8118 2.96372C10.8214 2.07329 8.61152 3.11714 7.11146 4.77756L8.61025 6.13159ZM11.987 4.80747C12.5643 5.06572 13.0427 5.70099 13.2181 6.73946C13.3921 7.76955 13.2351 9.07857 12.6466 10.3941L14.4904 11.2189C15.219 9.59017 15.4589 7.8778 15.2097 6.40303C14.962 4.93662 14.1974 3.58356 12.8118 2.96372L11.987 4.80747ZM12.6466 10.3941C11.7432 12.4134 10.228 13.5831 9.04339 13.7497L9.32476 15.7499C11.4248 15.4544 13.4115 13.6305 14.4904 11.2189L12.6466 10.3941Z" fill="black" mask="url(#path-1-inside-1_0_42)"/>
</svg>
